<svg width="15" height="17" viewBox="0 0 15 17" fill="none" xmlns="http://www.w3.org/2000/svg">
<g clip-path="url(#clip0_218_702)">
<path d="M7.492 15.3337C10.4398 15.3124 12.9755 13.045 13.2833 10.0591C13.5442 7.54156 12.5633 5.59886 10.4868 4.23098C10.1164 3.98614 9.93896 3.65615 10.0172 3.2889C10.1424 2.6981 10.7581 2.42666 11.285 2.74068C12.1877 3.27293 12.9442 3.9755 13.5598 4.83242C16.7842 9.33524 14.3268 15.7648 8.96331 16.8506C4.82592 17.6915 0.845048 14.8972 0.109396 10.6339C-0.427996 7.52027 1.03287 4.32146 3.7094 2.74601C4.012 2.56504 4.31461 2.54907 4.612 2.74068C4.88853 2.91633 5.01896 3.18777 4.99809 3.51777C4.97722 3.84244 4.79983 4.06598 4.52853 4.23098C3.87635 4.61952 3.31809 5.12515 2.85896 5.74256C0.292004 9.19685 2.05027 14.1468 6.19809 15.1421C6.6207 15.2432 7.05896 15.2698 7.492 15.3337Z" fill="#999999"/>
<path d="M8.33198 5.10958C8.33198 6.50939 8.3372 7.9092 8.33198 9.30902C8.33198 9.90513 7.85198 10.299 7.30937 10.1713C6.96503 10.0914 6.70416 9.78272 6.67807 9.42611C6.67285 9.3516 6.67285 9.2824 6.67285 9.20789C6.67285 6.46681 6.67285 3.72573 6.67285 0.984658C6.67285 0.862241 6.67285 0.729179 6.70416 0.612084C6.81372 0.202253 7.18937 -0.0425808 7.6172 0.010644C8.01372 0.0585463 8.32155 0.404507 8.32155 0.830306C8.32676 2.04383 8.32676 3.25736 8.32676 4.4762C8.33198 4.68378 8.33198 4.89668 8.33198 5.10958Z" fill="#999999"/>
</g>
<defs>
<clipPath id="clip0_218_702">
<rect width="15" height="17" fill="white"/>
</clipPath>
</defs>
</svg>
