<svg width="6" height="10" viewBox="0 0 6 10" fill="none" xmlns="http://www.w3.org/2000/svg">
<path d="M5.78977 5.5312C5.89361 5.42749 5.95202 5.28678 5.95215 5.14001V4.85954C5.95045 4.71309 5.89228 4.57295 5.78977 4.46835L1.99596 0.681918C1.92666 0.612052 1.83234 0.572754 1.73393 0.572754C1.63553 0.572754 1.5412 0.612052 1.47191 0.681918L0.947862 1.20597C0.878434 1.27399 0.839309 1.3671 0.839309 1.4643C0.839309 1.5615 0.878434 1.65461 0.947862 1.72263L4.23239 4.99977L0.947862 8.27692C0.877996 8.34621 0.838698 8.44054 0.838698 8.53894C0.838698 8.63734 0.877996 8.73167 0.947862 8.80097L1.47191 9.31763C1.5412 9.3875 1.63553 9.4268 1.73393 9.4268C1.83234 9.4268 1.92666 9.3875 1.99596 9.31763L5.78977 5.5312Z" fill="#3751FF"/>
</svg>
