<svg width="16" height="16" viewBox="0 0 16 16" fill="none" xmlns="http://www.w3.org/2000/svg">
<path d="M7.42048 0.0419922C7.66465 0.0769411 7.9437 0.11189 8.18786 0.181788C9.33894 0.391482 10.3505 0.915716 11.2574 1.71954C12.3038 2.66316 12.9666 3.85143 13.2456 5.21444C13.5596 6.85704 13.2805 8.39479 12.4085 9.8277C12.2341 10.0723 12.0597 10.317 11.8853 10.5966C11.9201 10.6315 11.955 10.6665 11.9899 10.7014C13.1759 11.9596 14.3967 13.2177 15.5827 14.4759C15.9315 14.8603 15.9664 15.3496 15.6524 15.6991C15.3734 16.0137 14.8502 16.0486 14.5362 15.769C14.4665 15.6991 14.3967 15.6642 14.3618 15.5943C13.1759 14.3361 11.955 13.1129 10.7691 11.8547C10.7342 11.8198 10.6993 11.7848 10.6644 11.7499C10.5947 11.7848 10.5598 11.8198 10.5249 11.8547C9.61799 12.4489 8.64132 12.7984 7.56 12.9032C6.19964 13.008 4.90904 12.7285 3.72308 12.0295C2.22319 11.1208 1.24652 9.8277 0.793065 8.15015C0.374491 6.64734 0.514016 5.17949 1.21164 3.78153C2.08367 1.99913 3.47891 0.845818 5.36249 0.321584C5.67642 0.216737 6.02523 0.181788 6.37404 0.146839C6.37404 0.0769411 6.40893 0.0419922 6.44381 0.0419922C6.75774 0.0419922 7.07167 0.0419922 7.42048 0.0419922ZM6.93214 11.1907C9.54823 11.1907 11.6411 9.09377 11.676 6.4726C11.676 3.85143 9.58311 1.71954 6.96702 1.71954C4.31606 1.71954 2.25807 3.81648 2.22319 6.43765C2.18831 9.05882 4.31606 11.1907 6.93214 11.1907Z" fill="#3751FF"/>
</svg>
