<svg width="16" height="16" viewBox="0 0 16 16" fill="none" xmlns="http://www.w3.org/2000/svg">
<path d="M6.86286 0C7.10703 0.0349489 7.38608 0.0698979 7.63025 0.139796C8.78132 0.349489 9.79288 0.873724 10.6998 1.67755C11.7462 2.62117 12.409 3.80943 12.688 5.17244C13.0019 6.81504 12.7229 8.3528 11.8509 9.7857C11.6765 10.0303 11.5021 10.275 11.3276 10.5546C11.3625 10.5895 11.3974 10.6245 11.4323 10.6594C12.6182 11.9176 13.8391 13.1757 15.025 14.4339C15.3739 14.8183 15.4087 15.3076 15.0948 15.6571C14.8158 15.9717 14.2925 16.0066 13.9786 15.727C13.9088 15.6571 13.8391 15.6222 13.8042 15.5523C12.6182 14.2941 11.3974 13.0709 10.2114 11.8127C10.1766 11.7778 10.1417 11.7428 10.1068 11.7079C10.037 11.7428 10.0022 11.7778 9.96728 11.8127C9.06037 12.4069 8.0837 12.7564 7.00239 12.8612C5.64202 12.9661 4.35142 12.6865 3.16546 11.9875C1.66557 11.0788 0.688902 9.7857 0.235448 8.10815C-0.183126 6.60535 -0.0436014 5.13749 0.654021 3.73954C1.52605 1.95714 2.92129 0.803826 4.80487 0.279592C5.1188 0.174745 5.46762 0.139796 5.81643 0.104847C5.81643 0.0349489 5.85131 0 5.88619 0C6.20012 0 6.51405 0 6.86286 0ZM6.37453 11.1487C8.99061 11.1487 11.0835 9.05177 11.1184 6.4306C11.1184 3.80943 9.02549 1.67755 6.40941 1.67755C3.75844 1.67755 1.70045 3.77449 1.66557 6.39566C1.63069 9.01683 3.75844 11.1487 6.37453 11.1487Z" fill="white"/>
</svg>
