<svg width="19" height="19" viewBox="0 0 19 19" fill="none" xmlns="http://www.w3.org/2000/svg">
<circle cx="9.5" cy="9.5" r="9.5" fill="#3751FF"/>
<path d="M4.91875 8.84025C4.81124 8.93854 4.75 9.07751 4.75 9.22318C4.75 9.36885 4.81124 9.50781 4.91875 9.60611L7.94541 12.3733C8.1569 12.5667 8.4851 12.552 8.67846 12.3405C8.87181 12.129 8.85712 11.8008 8.64563 11.6075L6.6053 9.74204L14.2624 9.74203C14.5489 9.74203 14.7812 9.50973 14.7812 9.22318C14.7812 8.93662 14.5489 8.70432 14.2624 8.70432L6.6053 8.70432L8.64563 6.83887C8.85712 6.64551 8.87181 6.31732 8.67845 6.10583C8.48509 5.89435 8.1569 5.87965 7.94541 6.07301L4.91875 8.84025Z" fill="white"/>
</svg>
