<svg width="18" height="18" viewBox="0 0 18 18" fill="none" xmlns="http://www.w3.org/2000/svg">
<path fill-rule="evenodd" clip-rule="evenodd" d="M16.5 9C16.5 13.1421 13.1421 16.5 9 16.5C4.85786 16.5 1.5 13.1421 1.5 9C1.5 4.85786 4.85786 1.5 9 1.5C13.1421 1.5 16.5 4.85786 16.5 9ZM6.72722 6.72724C6.94689 6.50757 7.30304 6.50757 7.52271 6.72724L8.99998 8.2045L10.4772 6.72725C10.6969 6.50758 11.053 6.50758 11.2727 6.72725C11.4924 6.94692 11.4924 7.30308 11.2727 7.52275L9.79547 8.99999L11.2727 10.4772C11.4924 10.6969 11.4924 11.053 11.2727 11.2727C11.053 11.4924 10.6969 11.4924 10.4772 11.2727L8.99998 9.79549L7.52273 11.2727C7.30306 11.4924 6.94691 11.4924 6.72724 11.2727C6.50757 11.0531 6.50757 10.6969 6.72724 10.4772L8.20448 8.99999L6.72722 7.52273C6.50755 7.30306 6.50755 6.94691 6.72722 6.72724Z" fill="#5A5A5A"/>
</svg>
