<svg width="15" height="15" viewBox="0 0 15 15" fill="none" xmlns="http://www.w3.org/2000/svg">
<path d="M15 10.6934C14.9912 10.708 14.9766 10.7227 14.9707 10.7402C14.7773 11.2471 14.2295 11.3672 13.8398 10.9805C13.1396 10.2861 12.4453 9.58594 11.748 8.88867C11.707 8.84766 11.6777 8.79492 11.6426 8.74512C11.0332 9.19922 10.3916 9.49805 9.66797 9.64453C9.66797 9.70606 9.66797 9.76465 9.66797 9.82031C9.66797 10.875 9.66797 11.9297 9.66797 12.9844C9.66797 13.0342 9.6709 13.084 9.66504 13.1309C9.64746 13.251 9.57715 13.3301 9.45117 13.3301C9.3252 13.333 9.25488 13.2568 9.23145 13.1367C9.22266 13.0898 9.22559 13.04 9.22559 12.9902C9.22559 11.959 9.22559 10.9307 9.22559 9.89941C9.22559 9.84668 9.22559 9.79395 9.22559 9.72363C9.05273 9.73535 8.89453 9.74414 8.71289 9.75586C8.71289 9.82324 8.71289 9.88477 8.71289 9.94629C8.71289 11.1709 8.71289 12.3984 8.71289 13.623C8.71289 13.9336 8.66309 13.9805 8.3584 13.9805C7.85156 13.9805 7.3418 13.9805 6.83496 13.9805C6.58008 13.9805 6.51562 13.9189 6.51562 13.6611C6.51562 12.2637 6.5127 10.8691 6.52148 9.47168C6.52148 9.30176 6.46875 9.2168 6.32227 9.14941C6.1875 9.08789 6.06152 9 5.90918 8.91211C5.90625 8.98242 5.90039 9.03516 5.90039 9.09082C5.90039 10.5938 5.90039 12.0996 5.90039 13.6025C5.90039 13.6553 5.90332 13.7109 5.89746 13.7637C5.88574 13.9014 5.80957 13.9805 5.66895 13.9805C5.0918 13.9834 4.51758 13.9834 3.94043 13.9805C3.79102 13.9805 3.71777 13.9043 3.70605 13.7578C3.7002 13.7051 3.70312 13.6494 3.70312 13.5967C3.70312 11.54 3.70312 9.48633 3.70312 7.42969C3.70312 7.08398 3.74707 7.04004 4.08984 7.04004C4.14844 7.04004 4.20703 7.04004 4.29492 7.04004C4.0166 6.44531 3.84961 5.8418 3.80566 5.18848C3.74414 5.18848 3.69141 5.18848 3.63867 5.18848C2.97363 5.18848 2.31152 5.18848 1.64648 5.18848C1.59375 5.18848 1.53809 5.19141 1.48535 5.17969C1.36523 5.15332 1.29785 5.07422 1.30957 4.94824C1.31836 4.82812 1.39453 4.7666 1.50879 4.75195C1.55273 4.74609 1.59668 4.74902 1.64062 4.74902C2.2998 4.74902 2.95898 4.74902 3.61816 4.74902C3.6709 4.74902 3.72363 4.74902 3.78809 4.74902C3.80273 4.57031 3.81738 4.40039 3.83203 4.20996C3.76758 4.20996 3.71191 4.20996 3.65625 4.20996C2.98828 4.20996 2.31738 4.20996 1.64941 4.20996C1.59082 4.20996 1.53223 4.20996 1.47363 4.19824C1.3623 4.17773 1.30664 4.10156 1.30664 3.99023C1.30664 3.87891 1.3623 3.80566 1.47656 3.78516C1.53223 3.77344 1.59375 3.77344 1.65234 3.77344C2.36133 3.77344 3.06738 3.77051 3.77637 3.77637C3.88184 3.77637 3.93457 3.75293 3.95508 3.6416C3.98145 3.50977 4.02832 3.38086 4.06934 3.23438C4.00488 3.23438 3.95215 3.23438 3.90234 3.23438C3.14648 3.23438 2.3877 3.23438 1.63184 3.23438C1.58203 3.23438 1.53223 3.2373 1.48535 3.22852C1.38281 3.21094 1.32129 3.14648 1.30957 3.04102C1.29785 2.92969 1.34473 2.84766 1.45312 2.81543C1.51172 2.79785 1.5791 2.79492 1.64062 2.79492C2.46973 2.79492 3.30176 2.79199 4.13086 2.79492C4.22754 2.79492 4.27734 2.76855 4.32129 2.68066C4.42969 2.47559 4.5498 2.27637 4.66992 2.0625C3.25781 2.0625 1.85449 2.0625 0.436523 2.0625C0.436523 2.30273 0.436523 2.54004 0.436523 2.77734C0.436523 2.88574 0.395508 2.98242 0.290039 3.00293C0.219727 3.01465 0.137695 2.97949 0.0615234 2.95313C0.0380859 2.93848 0.0205078 2.89746 0 2.87109C0 2.49902 0 2.12988 0 1.75781C0.0732422 1.63184 0.1875 1.6084 0.322266 1.6084C1.8457 1.61133 3.36621 1.6084 4.88965 1.61133C5.00098 1.61133 5.07715 1.5791 5.15625 1.5C5.79199 0.84668 6.54785 0.386719 7.43555 0.166992C7.73438 0.09375 8.04492 0.0556641 8.34961 0C8.56348 0 8.78027 0 8.99414 0C9.01758 0.00585938 9.04102 0.0175781 9.06445 0.0205078C9.86719 0.0849609 10.6143 0.328125 11.2852 0.767578C11.5781 0.958008 11.8389 1.19531 12.1084 1.4209C12.2168 1.51172 12.2168 1.64355 12.1377 1.73438C12.0498 1.83398 11.9297 1.83691 11.8125 1.74023C11.7568 1.69336 11.7041 1.64063 11.6484 1.59375C10.1895 0.28125 8.09473 0.0673828 6.4043 1.06348C4.52637 2.16797 3.73242 4.53223 4.56152 6.55078C5.3584 8.48731 7.38574 9.60938 9.44531 9.24023C10.6406 9.02637 11.5986 8.41992 12.2959 7.42676C12.9932 6.43652 13.2305 5.3291 13.04 4.13086C12.9463 3.53906 12.7295 2.99414 12.4131 2.49023C12.3164 2.33496 12.3369 2.20313 12.457 2.13281C12.5771 2.06543 12.6914 2.10645 12.7822 2.25879C13.7314 3.84961 13.8076 5.47852 12.9814 7.13965C12.8643 7.37695 12.709 7.59961 12.5479 7.86328C12.5801 7.88672 12.6328 7.91016 12.6709 7.94824C13.3096 8.58691 13.9541 9.21973 14.584 9.86719C14.7393 10.0283 14.8594 10.2217 14.9971 10.4004C15 10.4971 15 10.5967 15 10.6934ZM4.15723 7.47363C4.15723 9.50098 4.15723 11.5137 4.15723 13.5293C4.59375 13.5293 5.02148 13.5293 5.45508 13.5293C5.45801 13.4941 5.46387 13.4648 5.46387 13.4355C5.46387 11.8389 5.46387 10.2422 5.46094 8.64844C5.46094 8.59277 5.42578 8.52832 5.39062 8.48438C5.12695 8.1709 4.86328 7.86035 4.59375 7.55273C4.56445 7.52051 4.52344 7.47949 4.48242 7.47656C4.37695 7.46777 4.27148 7.47363 4.15723 7.47363ZM6.96973 9.47168C6.96973 10.8223 6.96973 12.1758 6.96973 13.5293C7.40918 13.5293 7.83691 13.5293 8.27637 13.5293C8.27637 13.4619 8.27637 13.4033 8.27637 13.3477C8.27637 12.6387 8.27637 11.9326 8.27637 11.2236C8.27637 10.7783 8.27344 10.3359 8.2793 9.89063C8.2793 9.7793 8.26172 9.71777 8.13281 9.7207C8.03613 9.7207 7.93945 9.7002 7.84277 9.67969C7.55273 9.6123 7.26562 9.54199 6.96973 9.47168ZM11.9736 8.47266C11.9766 8.48438 11.9795 8.49023 11.9824 8.49316C12.7119 9.22559 13.4414 9.95801 14.1738 10.6904C14.2734 10.79 14.4023 10.79 14.4902 10.708C14.584 10.6201 14.584 10.4971 14.4844 10.3828C14.4609 10.3564 14.4375 10.333 14.4111 10.3096C13.7344 9.63281 13.0576 8.95606 12.3809 8.2793C12.3457 8.24414 12.3076 8.20898 12.2812 8.18555C12.1699 8.29102 12.0703 8.38184 11.9736 8.47266Z" fill="white"/>
<path d="M0 3.69152C0.0644531 3.58312 0.152344 3.50402 0.287109 3.55089C0.430664 3.59777 0.439453 3.72081 0.439453 3.84972C0.439453 7.3507 0.439453 10.8487 0.439453 14.3497C0.439453 14.4142 0.439453 14.4757 0.439453 14.5489C3.36621 14.5489 6.28711 14.5489 9.22852 14.5489C9.22852 14.4083 9.22852 14.2618 9.22852 14.1183C9.23145 13.9454 9.31055 13.8487 9.44824 13.8487C9.58594 13.8487 9.66504 13.9454 9.66797 14.1183C9.6709 14.3087 9.66211 14.4991 9.6709 14.6896C9.67676 14.8243 9.63574 14.9269 9.52148 15.0001C6.34863 15.0001 3.17871 15.0001 0 15.0001C0 11.2296 0 7.46202 0 3.69152Z" fill="white"/>
<path d="M3.14941 11.3848C3.14941 12.1377 3.14941 12.8877 3.14941 13.6406C3.14941 13.9277 3.09375 13.9805 2.80371 13.9805C2.28516 13.9805 1.76953 13.9805 1.25098 13.9805C1.02246 13.9805 0.952148 13.9131 0.952148 13.6846C0.952148 12.1553 0.952148 10.6289 0.952148 9.09961C0.952148 8.86523 1.02832 8.79199 1.25977 8.79199C1.78711 8.79199 2.31445 8.79199 2.8418 8.79199C3.07324 8.79199 3.14941 8.86523 3.14941 9.09961C3.14941 9.86133 3.14941 10.623 3.14941 11.3848ZM1.39746 13.5264C1.83984 13.5264 2.27051 13.5264 2.69531 13.5264C2.69531 12.0908 2.69531 10.667 2.69531 9.24316C2.25586 9.24316 1.82812 9.24316 1.39746 9.24316C1.39746 10.6729 1.39746 12.0938 1.39746 13.5264Z" fill="white"/>
<path d="M2.33789 6.15552C2.08301 6.15552 1.83105 6.15552 1.57617 6.15552C1.40039 6.15552 1.30664 6.07349 1.30664 5.93579C1.30664 5.80103 1.40625 5.71899 1.5791 5.71606C2.08594 5.71313 2.5957 5.71313 3.10254 5.71606C3.27539 5.71606 3.37793 5.7981 3.38086 5.93286C3.38379 6.07349 3.28418 6.15552 3.09961 6.15552C2.84766 6.15552 2.59277 6.15552 2.33789 6.15552Z" fill="white"/>
<path d="M8.66602 8.87408C6.45996 8.86822 4.67285 7.07818 4.67285 4.87506C4.67285 2.66607 6.47754 0.867244 8.68066 0.878963C10.8926 0.890682 12.6768 2.68365 12.6621 4.88385C12.6504 7.09869 10.8662 8.87994 8.66602 8.87408ZM8.66602 8.43463C10.626 8.44049 12.2197 6.84967 12.2256 4.88092C12.2314 2.91803 10.6377 1.32135 8.67481 1.31842C6.71191 1.31549 5.12109 2.90338 5.1123 4.87213C5.10352 6.82916 6.70312 8.4317 8.66602 8.43463Z" fill="white"/>
</svg>
